<?xml version="1.0" encoding="utf-8"?>
<svg width="17px" height="17px" viewBox="0 0 17 17" version="1.1" xmlns:xlink="http://www.w3.org/1999/xlink" xmlns="http://www.w3.org/2000/svg">
  <g id="cancel-icon">
    <path d="M16.0342 0.000266184C15.7855 0.00614651 15.5492 0.110076 15.3767 0.289414L8.5 7.16634L1.62328 0.289414C1.44575 0.106921 1.20198 0.00396398 0.947393 0.0039487C0.563697 0.00405031 0.218317 0.236629 0.0739349 0.592135C-0.0704476 0.947644 0.0149589 1.35519 0.289928 1.62281L7.16665 8.49974L0.289926 15.3767C0.0436016 15.6132 -0.0556209 15.9644 0.030523 16.2948C0.116665 16.6253 0.374714 16.8833 0.705149 16.9695C1.03558 17.0556 1.38677 16.9564 1.62328 16.7101L8.5 9.83313L15.3767 16.7101C15.6132 16.9564 15.9644 17.0556 16.2948 16.9695C16.6253 16.8833 16.8833 16.6253 16.9695 16.2948C17.0556 15.9644 16.9564 15.6132 16.7101 15.3767L9.83335 8.49974L16.7101 1.62281C16.9903 1.35329 17.0765 0.939358 16.9269 0.580411C16.7774 0.221462 16.4229 -0.00890817 16.0342 0.000265285L16.0342 0.000266184Z" id="Shape-path" fill="#BFBFBF" fill-rule="evenodd" stroke="none" />
  </g>
</svg>