<?xml version="1.0" encoding="utf-8"?>
<svg width="109px" height="101px" viewBox="0 0 109 101" version="1.1" xmlns:xlink="http://www.w3.org/1999/xlink" xmlns="http://www.w3.org/2000/svg">
  <defs>
    <filter id="filter_1">
      <feColorMatrix in="SourceGraphic" type="matrix" values="0 0 0 0 0.6313726 0 0 0 0 0.6313726 0 0 0 0 0.6313726 0 0 0 1 0" />
    </filter>
    <filter id="filter_2">
      <feColorMatrix in="SourceGraphic" type="matrix" values="0 0 0 0 1 0 0 0 0 1 0 0 0 0 1 0 0 0 1 0" />
    </filter>
    <path d="M0 0L34.3097 0L34.3097 36.0465L0 36.0465L0 0Z" id="path_1" />
    <clipPath id="mask_1">
      <use xlink:href="#path_1" />
    </clipPath>
  </defs>
  <g id="create-new-folder-icon" filter="url(#filter_2)">
    <g id="Group" transform="translate(3.0662231 4.600006)" filter="url(#filter_1)">
      <path d="M0.070972 6.48837C0.070972 2.9316 2.86131 0 6.24671 0L28.8911 0C30.5798 0 31.7699 1.0814 32.6223 2.0952C33.4747 3.10901 34.1662 4.25799 34.8095 5.33939C35.4528 6.42078 36.0398 7.43459 36.5464 8.04288C36.8761 8.43995 37.0611 8.60047 37.1254 8.65116C37.1467 8.65116 37.1633 8.65281 37.1745 8.65392C37.1887 8.65533 37.1942 8.65588 37.1897 8.65116L90.6485 8.65116C94.0339 8.65116 96.8242 11.5828 96.8242 15.1395L96.8242 21.6279C100.21 21.6279 103 24.5595 103 28.1163L103 28.319L102.936 28.5218L97.9207 56.9535L93.8072 56.9535L98.8829 28.1163C98.8829 26.8997 97.9823 25.9535 96.8243 25.9535L16.5397 25.9535C15.3817 25.9535 14.4811 26.8997 14.4811 28.1163L14.4811 28.319L14.4167 28.5218L4.18817 86.5116C4.18817 87.7282 5.0888 88.6744 6.24675 88.6744L68.6903 88.6744L68.6903 93L6.24671 93C3.2875 93 0.778609 90.7443 0.199633 87.7958C-0.00944126 87.3311 -0.0576892 86.8073 0.070972 86.3089L0.070972 6.48837ZM28.8911 4.32556L6.24675 4.32556C5.0888 4.32556 4.18817 5.27178 4.18817 6.48835L4.18817 63.1264L10.3639 28.1163L10.4282 27.7107L10.4926 27.7107C10.7177 24.3652 13.299 21.6279 16.5397 21.6279L92.7071 21.6279L92.7071 15.1395C92.7071 13.9229 91.8065 12.9767 90.6485 12.9767L37.1255 12.9767C35.4368 12.9767 34.2949 11.8953 33.4586 10.8815C32.6223 9.86771 31.9147 8.71873 31.2714 7.63733C30.6281 6.55594 30.041 5.54213 29.5344 4.93385C29.1104 4.42466 28.8553 4.34171 28.859 4.32819C28.8597 4.32556 28.8702 4.32556 28.8911 4.32556Z" id="Shape-Difference" fill="#FFFFFF" fill-rule="evenodd" stroke="none" />
      <g id="Plus-icon" transform="translate(68.69031 56.913483)">
        <path d="M0 0L34.3097 0L34.3097 36.0465L0 36.0465L0 0Z" id="Background" fill="none" fill-rule="evenodd" stroke="none" />
        <g clip-path="url(#mask_1)">
          <path d="M15.7253 3.00388L15.7253 16.5213L2.85913 16.5213L2.85913 19.5252L15.7253 19.5252L15.7253 33.0426L18.5844 33.0426L18.5844 19.5252L31.4505 19.5252L31.4505 16.5213L18.5844 16.5213L18.5844 3.00388L15.7253 3.00388Z" id="Shape" fill="#FFFFFF" fill-rule="evenodd" stroke="none" />
        </g>
      </g>
    </g>
  </g>
</svg>