<?xml version="1.0" encoding="utf-8"?>
<svg width="66px" height="73px" viewBox="0 0 66 73" version="1.1" xmlns:xlink="http://www.w3.org/1999/xlink" xmlns="http://www.w3.org/2000/svg">
  <g id="debug-icon">
    <g id="Group-2">
      <path d="M22.211 55.8309L22.2109 20.9027Q22.2109 20.7292 22.223 20.5562Q22.235 20.3831 22.259 20.2113Q22.283 20.0395 22.3188 19.8698Q22.3547 19.7 22.4022 19.5332Q22.4497 19.3664 22.5087 19.2032Q22.5676 19.0401 22.6378 18.8814Q22.7079 18.7228 22.7889 18.5694Q22.8699 18.4159 22.9613 18.2685Q23.0527 18.1211 23.1541 17.9803Q23.2555 17.8396 23.3664 17.7062Q23.4773 17.5728 23.5972 17.4475Q23.7171 17.3221 23.8455 17.2053Q23.9738 17.0886 24.1098 16.981Q24.2459 16.8734 24.3892 16.7756Q24.5324 16.6777 24.682 16.59Q24.8317 16.5022 24.9871 16.4251Q25.1424 16.348 25.3028 16.2818Q25.4632 16.2156 25.6277 16.1607Q25.7923 16.1058 25.9602 16.0624Q26.1282 16.0191 26.2987 15.9874Q26.4693 15.9558 26.6417 15.9361Q26.814 15.9164 26.9873 15.9087Q27.1606 15.9009 27.334 15.9052Q27.5075 15.9095 27.6802 15.9259Q27.8529 15.9422 28.024 15.9704Q28.1952 15.9987 28.364 16.0387Q28.5327 16.0788 28.6984 16.1304Q28.864 16.1821 29.0256 16.2451Q29.1872 16.3081 29.3441 16.3821Q29.501 16.4562 29.6523 16.541Q29.8037 16.6257 29.9488 16.7207Q30.0939 16.8158 30.2321 16.9207L50.0583 31.9678L59.3913 39.0511Q59.5182 39.1474 59.6387 39.2516Q59.7592 39.3557 59.8728 39.4674Q59.9864 39.579 60.0927 39.6977Q60.199 39.8163 60.2975 39.9415Q60.396 40.0667 60.4864 40.1979Q60.5767 40.329 60.6585 40.4657Q60.7403 40.6024 60.8133 40.744Q60.8862 40.8856 60.95 41.0316Q61.0138 41.1775 61.0681 41.3273Q61.1225 41.477 61.1672 41.6299Q61.2119 41.7827 61.2468 41.9382Q61.2817 42.0936 61.3066 42.2509Q61.3315 42.4082 61.3464 42.5668Q61.3612 42.7254 61.366 42.8846Q61.3707 43.0439 61.3653 43.2031Q61.3599 43.3623 61.3443 43.5208Q61.3288 43.6793 61.3032 43.8365Q61.2776 43.9937 61.242 44.149Q61.2065 44.3043 61.1611 44.457Q61.1157 44.6097 61.0607 44.7592Q61.0057 44.9086 60.9413 45.0543Q60.8769 45.2 60.8034 45.3413Q60.7298 45.4826 60.6474 45.6189Q60.565 45.7552 60.4741 45.8861Q60.3832 46.0168 60.2842 46.1416Q60.1851 46.2663 60.0784 46.3845Q59.9716 46.5027 59.8575 46.6139Q59.7434 46.725 59.6224 46.8287Q59.5015 46.9323 59.3742 47.0281Q59.2469 47.1238 59.1138 47.2113Q58.9806 47.2988 58.8422 47.3776Q58.7038 47.4564 58.5606 47.5262L41.5335 55.8309L21.4426 65.6298" id="Triangle" fill="none" fill-rule="evenodd" stroke="#808080" stroke-width="5" />
      <g id="Group" transform="translate(3.9600513 48.559708)">
        <path d="M4.40379 11.1752C4.40379 5.00332 7.75558 0 11.8902 0C16.0249 0 19.3766 5.00332 19.3766 11.1752C19.3766 17.3471 16.0249 22.3504 11.8902 22.3504C7.75558 22.3504 4.40379 17.3471 4.40379 11.1752Z" id="Ellipse" fill="none" fill-rule="evenodd" stroke="#808080" stroke-width="5" />
        <path d="M0.880758 2.12438C0.880758 2.12438 9.90851 11.8612 21.5785 2.12438" id="New-shape" fill="none" fill-rule="evenodd" stroke="#808080" stroke-width="5" />
        <path d="M19.5968 11.8612L23.7804 11.8612" id="New-shape-2" fill="none" fill-rule="evenodd" stroke="#808080" stroke-width="5" />
        <path d="M0 11.8612L4.18359 11.8612" id="New-shape-3" fill="none" fill-rule="evenodd" stroke="#808080" stroke-width="5" />
        <path d="M17.8353 19.3851L21.7987 22.7045" id="New-shape-4" fill="none" fill-rule="evenodd" stroke="#808080" stroke-width="5" />
        <path d="M7.26624 20.7129L3.74321 24.2536" id="New-shape-5" fill="none" fill-rule="evenodd" stroke="#808080" stroke-width="5" />
      </g>
    </g>
  </g>
</svg>