<?xml version="1.0" encoding="utf-8"?>
<svg width="54px" height="54px" viewBox="0 0 54 54" version="1.1" xmlns:xlink="http://www.w3.org/1999/xlink" xmlns="http://www.w3.org/2000/svg">
  <g id="extension-icon">
    <g id="Group-2" transform="translate(3.3515882 3.3515882)">
      <g id="Group" transform="translate(0 8.970406)">
        <path d="M7.999 1.32514e-06L19.0409 3.15438e-06L19.0409 18.2859L37.4018 18.2859L37.4018 29.9528Q37.4018 30.1492 37.3922 30.3453Q37.3825 30.5414 37.3633 30.7369Q37.344 30.9323 37.3152 31.1265Q37.2864 31.3208 37.2481 31.5133Q37.2098 31.7059 37.1621 31.8964Q37.1144 32.0869 37.0574 32.2748Q37.0004 32.4627 36.9342 32.6476Q36.868 32.8325 36.7929 33.0139Q36.7178 33.1953 36.6338 33.3728Q36.5499 33.5504 36.4573 33.7235Q36.3647 33.8967 36.2638 34.0651Q36.1628 34.2336 36.0537 34.3968Q35.9446 34.5601 35.8277 34.7178Q35.7107 34.8755 35.5861 35.0273Q35.4615 35.1791 35.3297 35.3246Q35.1978 35.4701 35.0589 35.609Q34.9201 35.7478 34.7746 35.8797Q34.6291 36.0116 34.4773 36.1361Q34.3255 36.2607 34.1678 36.3777Q34.0101 36.4947 33.8468 36.6037Q33.6835 36.7128 33.5151 36.8138Q33.3467 36.9147 33.1735 37.0073Q33.0003 37.0999 32.8228 37.1838Q32.6453 37.2678 32.4639 37.3429Q32.2825 37.4181 32.0976 37.4842Q31.9127 37.5504 31.7248 37.6074Q31.5369 37.6644 31.3464 37.7121Q31.1559 37.7598 30.9633 37.7981Q30.7707 37.8364 30.5765 37.8652Q30.3823 37.8941 30.1868 37.9133Q29.9914 37.9326 29.7953 37.9422Q29.5992 37.9518 29.4028 37.9518L7.999 37.9518Q7.80264 37.9518 7.60651 37.9422Q7.41038 37.9326 7.21496 37.9133Q7.01954 37.8941 6.8253 37.8652Q6.63106 37.8364 6.43847 37.7981Q6.24588 37.7598 6.0554 37.7121Q5.86492 37.6644 5.67701 37.6074Q5.4891 37.5504 5.30422 37.4842Q5.11933 37.4181 4.93791 37.3429Q4.7565 37.2678 4.57899 37.1838Q4.40148 37.0999 4.2283 37.0073Q4.05512 36.9147 3.88669 36.8138Q3.71826 36.7128 3.55499 36.6037Q3.39172 36.4947 3.234 36.3777Q3.07628 36.2607 2.92449 36.1361Q2.7727 36.0116 2.6272 35.8797Q2.4817 35.7478 2.34285 35.609Q2.204 35.4701 2.07213 35.3246Q1.94026 35.1791 1.81569 35.0273Q1.69112 34.8755 1.57414 34.7178Q1.45717 34.5601 1.34807 34.3968Q1.23898 34.2336 1.13803 34.0651Q1.03708 33.8967 0.944512 33.7235Q0.851946 33.5503 0.76799 33.3728Q0.684033 33.1953 0.608888 33.0139Q0.533742 32.8325 0.467589 32.6476Q0.401436 32.4627 0.344434 32.2748Q0.287433 32.0869 0.23972 31.8964Q0.192007 31.7059 0.153699 31.5133Q0.11539 31.3208 0.0865771 31.1265Q0.0577644 30.9323 0.0385174 30.7369Q0.0192703 30.5414 0.00963514 30.3453Q0 30.1492 0 29.9528L0 7.999Q0 7.80264 0.00963515 7.60651Q0.0192703 7.41038 0.0385174 7.21496Q0.0577645 7.01954 0.0865771 6.8253Q0.11539 6.63106 0.153699 6.43847Q0.192007 6.24588 0.23972 6.0554Q0.287433 5.86492 0.344434 5.67701Q0.401436 5.4891 0.467589 5.30422Q0.533742 5.11933 0.608888 4.93792Q0.684033 4.7565 0.76799 4.57899Q0.851946 4.40148 0.944512 4.2283Q1.03708 4.05512 1.13803 3.88669Q1.23898 3.71827 1.34807 3.55499Q1.45717 3.39172 1.57414 3.234Q1.69112 3.07628 1.81569 2.92449Q1.94026 2.7727 2.07213 2.6272Q2.204 2.4817 2.34285 2.34285Q2.4817 2.204 2.6272 2.07213Q2.7727 1.94026 2.92449 1.81569Q3.07628 1.69112 3.234 1.57414Q3.39172 1.45717 3.55499 1.34808Q3.71827 1.23898 3.88669 1.13803Q4.05512 1.03708 4.2283 0.944513Q4.40148 0.851947 4.57899 0.767991Q4.7565 0.684034 4.93792 0.608889Q5.11933 0.533743 5.30422 0.46759Q5.4891 0.401437 5.67701 0.344435Q5.86492 0.287434 6.0554 0.239721Q6.24588 0.192008 6.43847 0.1537Q6.63107 0.115391 6.8253 0.0865782Q7.01954 0.0577656 7.21496 0.0385186Q7.41038 0.0192715 7.60651 0.00963641Q7.80264 1.29261e-06 7.999 1.32514e-06L7.999 1.32514e-06Z" id="Rectangle" fill="none" fill-rule="evenodd" stroke="#808080" stroke-width="5" />
        <path d="M0 18.6309L37.4018 18.6309" id="Line" fill="none" fill-rule="evenodd" stroke="#727272" stroke-width="5" stroke-linecap="square" />
        <path d="M18.3609 2.55706e-05L18.3609 37.9518" id="Line-2" fill="none" fill-rule="evenodd" stroke="#727272" stroke-width="5" stroke-linecap="square" />
      </g>
      <path d="M31.8803 0L42.9232 0Q43.1197 0 43.3152 0.0192563Q43.5107 0.0385126 43.7034 0.0768396Q43.8961 0.115167 44.0841 0.172196Q44.2721 0.229224 44.4536 0.304406Q44.6351 0.379587 44.8083 0.472197Q44.9816 0.564807 45.145 0.673953Q45.3083 0.783099 45.4602 0.907731Q45.612 1.03236 45.7509 1.17128Q45.8899 1.3102 46.0145 1.46206Q46.1391 1.61393 46.2483 1.77727Q46.3574 1.94062 46.45 2.11388Q46.5426 2.28715 46.6178 2.46865Q46.693 2.65015 46.75 2.83815Q46.8071 3.02615 46.8454 3.21883Q46.8837 3.41152 46.903 3.60703Q46.9222 3.80254 46.9222 3.999L46.9222 14.6319Q46.9222 14.8283 46.903 15.0239Q46.8837 15.2194 46.8454 15.4121Q46.8071 15.6047 46.75 15.7927Q46.693 15.9807 46.6178 16.1622Q46.5426 16.3437 46.45 16.517Q46.3574 16.6903 46.2483 16.8536Q46.1391 17.017 46.0145 17.1688Q45.8899 17.3207 45.7509 17.4596Q45.612 17.5985 45.4602 17.7232Q45.3083 17.8478 45.145 17.9569Q44.9816 18.0661 44.8083 18.1587Q44.6351 18.2513 44.4536 18.3265Q44.2721 18.4017 44.0841 18.4587Q43.8961 18.5157 43.7034 18.554Q43.5107 18.5924 43.3152 18.6116Q43.1197 18.6309 42.9232 18.6309L31.8803 18.6309Q31.6839 18.6309 31.4884 18.6116Q31.2928 18.5924 31.1002 18.554Q30.9075 18.5157 30.7195 18.4587Q30.5315 18.4017 30.35 18.3265Q30.1685 18.2513 29.9952 18.1587Q29.8219 18.0661 29.6586 17.9569Q29.4952 17.8478 29.3434 17.7232Q29.1915 17.5985 29.0526 17.4596Q28.9137 17.3207 28.7891 17.1688Q28.6644 17.017 28.5553 16.8536Q28.4461 16.6903 28.3535 16.517Q28.2609 16.3437 28.1857 16.1622Q28.1105 15.9807 28.0535 15.7927Q27.9965 15.6047 27.9582 15.4121Q27.9198 15.2194 27.9006 15.0239Q27.8813 14.8283 27.8813 14.6319L27.8813 3.999Q27.8813 3.80254 27.9006 3.60703Q27.9198 3.41152 27.9582 3.21883Q27.9965 3.02615 28.0535 2.83815Q28.1105 2.65015 28.1857 2.46865Q28.2609 2.28715 28.3535 2.11388Q28.4461 1.94062 28.5553 1.77727Q28.6644 1.61393 28.7891 1.46206Q28.9137 1.3102 29.0526 1.17128Q29.1915 1.03236 29.3434 0.907731Q29.4952 0.783099 29.6586 0.673953Q29.8219 0.564807 29.9952 0.472197Q30.1685 0.379587 30.35 0.304406Q30.5315 0.229224 30.7195 0.172196Q30.9075 0.115167 31.1002 0.0768396Q31.2928 0.0385126 31.4884 0.0192563Q31.6839 0 31.8803 0Z" id="Rectangle" fill="none" fill-rule="evenodd" stroke="#727272" stroke-width="5" />
    </g>
  </g>
</svg>