<?xml version="1.0" encoding="utf-8"?>
<svg width="47px" height="57px" viewBox="0 0 47 57" version="1.1" xmlns:xlink="http://www.w3.org/1999/xlink" xmlns="http://www.w3.org/2000/svg">
  <defs>
    <path d="M16.0186 16.0186L7.999 16.0186Q7.80264 16.0186 7.60651 16.0283Q7.41038 16.0379 7.21496 16.0571Q7.01954 16.0764 6.8253 16.1052Q6.63106 16.134 6.43847 16.1723Q6.24588 16.2106 6.0554 16.2583Q5.86492 16.3061 5.67701 16.3631Q5.4891 16.4201 5.30422 16.4862Q5.11933 16.5524 4.93792 16.6275Q4.7565 16.7027 4.57899 16.7866Q4.40148 16.8706 4.2283 16.9631Q4.05512 17.0557 3.88669 17.1566Q3.71826 17.2576 3.55499 17.3667Q3.39172 17.4758 3.234 17.5928Q3.07628 17.7097 2.92449 17.8343Q2.7727 17.9589 2.6272 18.0908Q2.4817 18.2226 2.34285 18.3615Q2.204 18.5003 2.07213 18.6458Q1.94026 18.7913 1.81569 18.9431Q1.69112 19.0949 1.57414 19.2526Q1.45717 19.4103 1.34807 19.5736Q1.23898 19.7369 1.13803 19.9053Q1.03708 20.0737 0.944512 20.2469Q0.851946 20.4201 0.76799 20.5976Q0.684033 20.7751 0.608888 20.9565Q0.533742 21.138 0.467589 21.3228Q0.401436 21.5077 0.344434 21.6956Q0.287433 21.8835 0.23972 22.074Q0.192007 22.2645 0.153699 22.4571Q0.11539 22.6497 0.0865771 22.8439Q0.0577644 23.0382 0.0385174 23.2336Q0.0192703 23.429 0.00963515 23.6251Q0 23.8213 0 24.0176L0 46.4643Q0 46.6607 0.00963514 46.8568Q0.0192703 47.0529 0.0385174 47.2483Q0.0577644 47.4438 0.0865771 47.638Q0.11539 47.8322 0.153699 48.0248Q0.192007 48.2174 0.23972 48.4079Q0.287433 48.5984 0.344434 48.7863Q0.401436 48.9742 0.467589 49.1591Q0.533742 49.344 0.608888 49.5254Q0.684033 49.7068 0.76799 49.8843Q0.851946 50.0618 0.944512 50.235Q1.03708 50.4082 1.13803 50.5766Q1.23898 50.745 1.34807 50.9083Q1.45717 51.0716 1.57414 51.2293Q1.69112 51.387 1.81569 51.5388Q1.94026 51.6906 2.07213 51.8361Q2.204 51.9816 2.34285 52.1205Q2.4817 52.2593 2.6272 52.3912Q2.7727 52.523 2.92449 52.6476Q3.07628 52.7722 3.234 52.8892Q3.39172 53.0061 3.55499 53.1152Q3.71826 53.2243 3.88669 53.3253Q4.05512 53.4262 4.2283 53.5188Q4.40148 53.6114 4.57899 53.6953Q4.7565 53.7793 4.93791 53.8544Q5.11933 53.9296 5.30422 53.9957Q5.4891 54.0619 5.67701 54.1189Q5.86492 54.1759 6.0554 54.2236Q6.24588 54.2713 6.43847 54.3096Q6.63106 54.3479 6.8253 54.3767Q7.01954 54.4055 7.21496 54.4248Q7.41038 54.444 7.60651 54.4537Q7.80264 54.4633 7.999 54.4633L24.0382 54.4633Q24.2346 54.4633 24.4307 54.4537Q24.6269 54.444 24.8223 54.4248Q25.0177 54.4055 25.2119 54.3767Q25.4062 54.3479 25.5988 54.3096Q25.7914 54.2713 25.9818 54.2236Q26.1723 54.1759 26.3602 54.1189Q26.5481 54.0619 26.733 53.9957Q26.9179 53.9296 27.0993 53.8544Q27.2807 53.7793 27.4583 53.6953Q27.6358 53.6114 27.8089 53.5188Q27.9821 53.4262 28.1505 53.3253Q28.319 53.2243 28.4822 53.1152Q28.6455 53.0061 28.8032 52.8892Q28.961 52.7722 29.1127 52.6476Q29.2645 52.523 29.41 52.3912Q29.5555 52.2593 29.6944 52.1205Q29.8332 51.9816 29.9651 51.8361Q30.097 51.6906 30.2215 51.5388Q30.3461 51.387 30.4631 51.2293Q30.5801 51.0716 30.6892 50.9083Q30.7983 50.745 30.8992 50.5766Q31.0002 50.4082 31.0927 50.235Q31.1853 50.0618 31.2692 49.8843Q31.3532 49.7068 31.4283 49.5254Q31.5035 49.344 31.5696 49.1591Q31.6358 48.9742 31.6928 48.7863Q31.7498 48.5984 31.7975 48.4079Q31.8452 48.2174 31.8835 48.0248Q31.9218 47.8322 31.9507 47.638Q31.9795 47.4438 31.9987 47.2483Q32.018 47.0529 32.0276 46.8568Q32.0372 46.6607 32.0372 46.4643L32.0372 35.241L16.0186 35.241L16.0186 16.0186Z" id="path_1" />
    <clipPath id="clip_1">
      <use xlink:href="#path_1" />
    </clipPath>
  </defs>
  <g id="file-explorer-icon">
    <g id="Group" transform="translate(0.8379034 1.6757941)">
      <g id="Rectangle-Difference">
        <g clip-path="url(#clip_1)">
          <use xlink:href="#path_1" fill="none" stroke="#727272" stroke-width="10" />
        </g>
      </g>
      <path d="M17.6205 0C14.9799 0 12.8149 2.16502 12.8149 4.80559L12.8149 33.6391C12.8149 36.2797 14.9799 38.4447 17.6205 38.4447L40.0465 38.4447C42.6871 38.4447 44.8521 36.2797 44.8521 33.6391L44.8521 10.5498L34.3024 0L17.6205 0ZM17.6205 3.20373L32.0372 3.20373L32.0372 12.8149L41.6484 12.8149L41.6484 33.6391C41.6484 34.5402 40.9476 35.241 40.0465 35.241L17.6205 35.241C16.7194 35.241 16.0186 34.5402 16.0186 33.6391L16.0186 4.80559C16.0186 3.90454 16.7194 3.20373 17.6205 3.20373L17.6205 3.20373ZM35.241 5.46886L39.3833 9.61117L35.241 9.61117L35.241 5.46886Z" id="Shape-Copy" fill="#727272" fill-rule="evenodd" stroke="none" />
    </g>
  </g>
</svg>