<?xml version="1.0" encoding="utf-8"?>
<svg width="92px" height="92px" viewBox="0 0 92 92" version="1.1" xmlns:xlink="http://www.w3.org/1999/xlink" xmlns="http://www.w3.org/2000/svg">
  <defs>
    <path d="M0 0L92 0L92 92L0 92L0 0Z" id="path_1" />
    <clipPath id="mask_1">
      <use xlink:href="#path_1" />
    </clipPath>
  </defs>
  <g id="folder-icon">
    <g id="Folder-icon">
      <path d="M0 0L92 0L92 92L0 92L0 0Z" id="Background" fill="none" fill-rule="evenodd" stroke="none" />
      <g clip-path="url(#mask_1)">
        <path d="M72.8333 76.6667L19.1667 76.6667C12.8149 76.6667 7.66669 71.5185 7.66669 65.1667L7.66669 19.1667L72.8333 19.1667C79.1852 19.1667 84.3333 24.3148 84.3333 30.6667L84.3333 65.1667C84.3333 71.5185 79.1852 76.6667 72.8333 76.6667L72.8333 76.6667Z" id="Shape" fill="#FFFFFF" fill-opacity="0.35" fill-rule="evenodd" stroke="none" />
        <path d="M42.1667 19.1667L7.66669 19.1667L7.66669 15.3333C7.66669 11.0975 11.0975 7.66666 15.3334 7.66666L32.8057 7.66666C36.1062 7.66666 39.0349 9.77882 40.0775 12.9107L42.1667 19.1667L42.1667 19.1667Z" id="Shape" fill="#FFFFFF" fill-rule="evenodd" stroke="none" />
      </g>
    </g>
  </g>
</svg>