<?xml version="1.0" encoding="utf-8"?>
<svg width="938px" height="938px" viewBox="0 0 938 938" version="1.1" xmlns:xlink="http://www.w3.org/1999/xlink" xmlns="http://www.w3.org/2000/svg">
  <defs>
    <linearGradient x1="0" y1="0" x2="1" y2="1" id="gradient_1">
      <stop offset="0" stop-color="#0606FF" />
      <stop offset="1" stop-color="#9000FF" />
    </linearGradient>
  </defs>
  <g id="gemstone-logo">
    <path d="M59.999 32.0001L866.001 32.0001Q866.786 32.0001 867.571 32.0386Q868.356 32.0771 869.137 32.1541Q869.919 32.2311 870.696 32.3464Q871.473 32.4617 872.244 32.6149Q873.014 32.7682 873.776 32.959Q874.538 33.1499 875.29 33.3779Q876.042 33.6059 876.781 33.8706Q877.521 34.1352 878.246 34.4358Q878.972 34.7364 879.682 35.0723Q880.392 35.4082 881.085 35.7785Q881.778 36.1488 882.452 36.5526Q883.125 36.9564 883.779 37.3929Q884.432 37.8293 885.063 38.2972Q885.694 38.7652 886.301 39.2635Q886.908 39.7618 887.49 40.2894Q888.072 40.8169 888.628 41.3723Q889.183 41.9278 889.711 42.5098Q890.238 43.0919 890.737 43.6991Q891.235 44.3063 891.703 44.9373Q892.171 45.5682 892.607 46.2214Q893.044 46.8745 893.447 47.5483Q893.851 48.2221 894.222 48.9148Q894.592 49.6076 894.928 50.3177Q895.264 51.0278 895.564 51.7536Q895.865 52.4793 896.13 53.2189Q896.394 53.9585 896.622 54.7102Q896.85 55.4619 897.041 56.2239Q897.232 56.9859 897.385 57.7564Q897.538 58.5268 897.654 59.3038Q897.769 60.0809 897.846 60.8626Q897.923 61.6444 897.961 62.4289Q898 63.2135 898 63.9991L898 870.001Q898 870.786 897.961 871.571Q897.923 872.356 897.846 873.137Q897.769 873.919 897.654 874.696Q897.538 875.473 897.385 876.244Q897.232 877.014 897.041 877.776Q896.85 878.538 896.622 879.29Q896.394 880.041 896.129 880.781Q895.865 881.521 895.564 882.246Q895.264 882.972 894.928 883.682Q894.592 884.392 894.222 885.085Q893.851 885.778 893.447 886.452Q893.044 887.125 892.607 887.779Q892.171 888.432 891.703 889.063Q891.235 889.694 890.737 890.301Q890.238 890.908 889.711 891.49Q889.183 892.072 888.628 892.628Q888.072 893.183 887.49 893.711Q886.908 894.238 886.301 894.737Q885.694 895.235 885.063 895.703Q884.432 896.171 883.779 896.607Q883.125 897.043 882.452 897.447Q881.778 897.851 881.085 898.221Q880.392 898.592 879.682 898.928Q878.972 899.263 878.246 899.564Q877.521 899.865 876.781 900.129Q876.042 900.394 875.29 900.622Q874.538 900.85 873.776 901.041Q873.014 901.232 872.244 901.385Q871.473 901.538 870.696 901.654Q869.919 901.769 869.137 901.846Q868.356 901.923 867.571 901.961Q866.786 902 866.001 902L59.999 902Q59.2135 902 58.4289 901.961Q57.6443 901.923 56.8626 901.846Q56.0808 901.769 55.3038 901.654Q54.5267 901.538 53.7563 901.385Q52.9859 901.232 52.2239 901.041Q51.4619 900.85 50.7102 900.622Q49.9585 900.394 49.2189 900.129Q48.4792 899.865 47.7535 899.564Q47.0278 899.263 46.3177 898.928Q45.6075 898.592 44.9148 898.222Q44.222 897.851 43.5482 897.447Q42.8744 897.044 42.2213 896.607Q41.5682 896.171 40.9372 895.703Q40.3063 895.235 39.699 894.737Q39.0918 894.238 38.5098 893.711Q37.9277 893.183 37.3723 892.628Q36.8168 892.072 36.2893 891.49Q35.7618 890.908 35.2634 890.301Q34.7651 889.694 34.2972 889.063Q33.8292 888.432 33.3928 887.779Q32.9564 887.125 32.5525 886.452Q32.1487 885.778 31.7784 885.085Q31.4081 884.392 31.0722 883.682Q30.7364 882.972 30.4358 882.246Q30.1352 881.521 29.8705 880.781Q29.6059 880.041 29.3779 879.29Q29.1498 878.538 28.959 877.776Q28.7681 877.014 28.6148 876.244Q28.4616 875.473 28.3463 874.696Q28.2311 873.919 28.1541 873.137Q28.0771 872.356 28.0385 871.571Q28 870.786 28 870.001L28 63.9991Q28 63.2135 28.0385 62.4289Q28.0771 61.6444 28.1541 60.8626Q28.2311 60.0809 28.3463 59.3038Q28.4616 58.5268 28.6148 57.7564Q28.7681 56.9859 28.959 56.2239Q29.1498 55.4619 29.3779 54.7102Q29.6059 53.9585 29.8705 53.2189Q30.1352 52.4793 30.4358 51.7536Q30.7364 51.0278 31.0722 50.3177Q31.4081 49.6076 31.7784 48.9148Q32.1487 48.2221 32.5525 47.5483Q32.9564 46.8745 33.3928 46.2214Q33.8292 45.5682 34.2972 44.9373Q34.7651 44.3063 35.2634 43.6991Q35.7618 43.0919 36.2893 42.5098Q36.8168 41.9278 37.3723 41.3723Q37.9277 40.8169 38.5098 40.2894Q39.0918 39.7618 39.699 39.2635Q40.3063 38.7652 40.9372 38.2972Q41.5682 37.8293 42.2213 37.3929Q42.8745 36.9564 43.5482 36.5526Q44.222 36.1488 44.9148 35.7785Q45.6076 35.4082 46.3177 35.0723Q47.0278 34.7365 47.7535 34.4358Q48.4792 34.1352 49.2189 33.8706Q49.9585 33.606 50.7102 33.3779Q51.4619 33.1499 52.2239 32.959Q52.9859 32.7682 53.7563 32.6149Q54.5267 32.4617 55.3038 32.3464Q56.0808 32.2311 56.8625 32.1541Q57.6443 32.0771 58.4289 32.0386Q59.2135 32.0001 59.999 32.0001Z" id="Rectangle-Copy" fill="url(#gradient_1)" fill-rule="evenodd" stroke="none" />
    <path d="M465.982 339.012L626.178 339.012C626.178 339.012 622.402 437.636 757.501 474.767C759.599 475.899 517.475 796.504 517.475 796.504L168.5 329.049L315.58 138L719.369 138C719.369 138 618.048 251.635 626.178 323.148C628.038 322.242 571.949 323.148 571.949 323.148L465.962 321.764C455.367 321.94 412.098 321.764 412.098 321.764C412.098 321.764 447.839 330.187 447.8 339.01L448.156 415.37L452.72 446.708C454.411 450.439 425.872 466.719 429 468.2C430.77 469.038 463.644 456.118 465.982 455.83C547.455 467.847 568.217 443.398 571.949 415.37C638.74 353.185 544.5 432.2 544.5 432.2L465.981 432.2L465.982 339.012Z" id="New-shape-Copy-2" fill="#FFFFFF" fill-rule="evenodd" stroke="none" />
  </g>
</svg>