<?xml version="1.0" encoding="utf-8"?>
<svg width="47px" height="41px" viewBox="0 0 47 41" version="1.1" xmlns:xlink="http://www.w3.org/1999/xlink" xmlns="http://www.w3.org/2000/svg">
  <g id="Group-3" transform="translate(1.5 1.5)">
    <path d="M7.999 0L35.7836 0Q35.98 0 36.1761 0.00963514Q36.3722 0.0192703 36.5677 0.0385174Q36.7631 0.0577644 36.9573 0.0865771Q37.1515 0.11539 37.3441 0.153699Q37.5367 0.192007 37.7272 0.23972Q37.9177 0.287433 38.1056 0.344434Q38.2935 0.401436 38.4784 0.467589Q38.6633 0.533742 38.8447 0.608888Q39.0261 0.684033 39.2036 0.76799Q39.3811 0.851946 39.5543 0.944512Q39.7275 1.03708 39.8959 1.13803Q40.0643 1.23898 40.2276 1.34807Q40.3909 1.45717 40.5486 1.57414Q40.7063 1.69112 40.8581 1.81569Q41.0099 1.94026 41.1554 2.07213Q41.3009 2.204 41.4398 2.34285Q41.5786 2.4817 41.7105 2.6272Q41.8424 2.7727 41.9669 2.92449Q42.0915 3.07628 42.2085 3.234Q42.3254 3.39172 42.4345 3.55499Q42.5436 3.71826 42.6446 3.88669Q42.7455 4.05512 42.8381 4.2283Q42.9307 4.40148 43.0146 4.57899Q43.0986 4.7565 43.1737 4.93791Q43.2489 5.11933 43.315 5.30422Q43.3812 5.4891 43.4382 5.67701Q43.4952 5.86492 43.5429 6.0554Q43.5906 6.24588 43.6289 6.43847Q43.6672 6.63106 43.696 6.8253Q43.7248 7.01954 43.7441 7.21496Q43.7633 7.41038 43.773 7.60651Q43.7826 7.80264 43.7826 7.999L43.7826 30.001Q43.7826 30.1974 43.773 30.3935Q43.7633 30.5896 43.7441 30.785Q43.7248 30.9805 43.696 31.1747Q43.6672 31.3689 43.6289 31.5615Q43.5906 31.7541 43.5429 31.9446Q43.4952 32.1351 43.4382 32.323Q43.3812 32.5109 43.315 32.6958Q43.2489 32.8807 43.1737 33.0621Q43.0986 33.2435 43.0146 33.421Q42.9307 33.5985 42.8381 33.7717Q42.7455 33.9449 42.6446 34.1133Q42.5436 34.2817 42.4345 34.445Q42.3254 34.6083 42.2085 34.766Q42.0915 34.9237 41.9669 35.0755Q41.8424 35.2273 41.7105 35.3728Q41.5786 35.5183 41.4398 35.6571Q41.3009 35.796 41.1554 35.9279Q41.0099 36.0597 40.8581 36.1843Q40.7063 36.3089 40.5486 36.4259Q40.3909 36.5428 40.2276 36.6519Q40.0643 36.761 39.8959 36.862Q39.7275 36.9629 39.5543 37.0555Q39.3811 37.148 39.2036 37.232Q39.0261 37.316 38.8447 37.3911Q38.6633 37.4663 38.4784 37.5324Q38.2935 37.5986 38.1056 37.6556Q37.9177 37.7126 37.7272 37.7603Q37.5367 37.808 37.3441 37.8463Q37.1515 37.8846 36.9573 37.9134Q36.7631 37.9422 36.5677 37.9615Q36.3722 37.9807 36.1761 37.9904Q35.98 38 35.7836 38L7.999 38Q7.80264 38 7.60651 37.9904Q7.41038 37.9807 7.21496 37.9615Q7.01954 37.9422 6.8253 37.9134Q6.63106 37.8846 6.43847 37.8463Q6.24588 37.808 6.0554 37.7603Q5.86492 37.7126 5.67701 37.6556Q5.4891 37.5986 5.30422 37.5324Q5.11933 37.4663 4.93791 37.3911Q4.7565 37.316 4.57899 37.232Q4.40148 37.148 4.2283 37.0555Q4.05512 36.9629 3.88669 36.862Q3.71826 36.761 3.55499 36.6519Q3.39172 36.5428 3.234 36.4259Q3.07628 36.3089 2.92449 36.1843Q2.7727 36.0597 2.6272 35.9279Q2.4817 35.796 2.34285 35.6571Q2.204 35.5183 2.07213 35.3728Q1.94026 35.2273 1.81569 35.0755Q1.69112 34.9237 1.57414 34.766Q1.45717 34.6083 1.34807 34.445Q1.23898 34.2817 1.13803 34.1133Q1.03708 33.9449 0.944512 33.7717Q0.851946 33.5985 0.76799 33.421Q0.684033 33.2435 0.608888 33.0621Q0.533742 32.8807 0.467589 32.6958Q0.401436 32.5109 0.344434 32.323Q0.287433 32.1351 0.23972 31.9446Q0.192007 31.7541 0.153699 31.5615Q0.11539 31.3689 0.0865771 31.1747Q0.0577644 30.9805 0.0385174 30.785Q0.0192703 30.5896 0.00963514 30.3935Q0 30.1974 0 30.001L0 7.999Q0 7.80264 0.00963514 7.60651Q0.0192703 7.41038 0.0385174 7.21496Q0.0577644 7.01954 0.0865771 6.8253Q0.11539 6.63106 0.153699 6.43847Q0.192007 6.24588 0.23972 6.0554Q0.287433 5.86492 0.344434 5.67701Q0.401436 5.4891 0.467589 5.30422Q0.533742 5.11933 0.608888 4.93791Q0.684033 4.7565 0.76799 4.57899Q0.851946 4.40148 0.944512 4.2283Q1.03708 4.05512 1.13803 3.88669Q1.23898 3.71826 1.34807 3.55499Q1.45717 3.39172 1.57414 3.234Q1.69112 3.07628 1.81569 2.92449Q1.94026 2.7727 2.07213 2.6272Q2.204 2.4817 2.34285 2.34285Q2.4817 2.204 2.6272 2.07213Q2.7727 1.94026 2.92449 1.81569Q3.07628 1.69112 3.234 1.57414Q3.39172 1.45717 3.55499 1.34807Q3.71826 1.23898 3.88669 1.13803Q4.05512 1.03708 4.2283 0.944512Q4.40148 0.851946 4.57899 0.76799Q4.7565 0.684033 4.93791 0.608888Q5.11933 0.533742 5.30422 0.467589Q5.4891 0.401436 5.67701 0.344434Q5.86492 0.287433 6.0554 0.23972Q6.24588 0.192007 6.43847 0.153699Q6.63106 0.11539 6.8253 0.0865771Q7.01954 0.0577644 7.21496 0.0385174Q7.41038 0.0192703 7.60651 0.00963514Q7.80264 0 7.999 0Z" id="Rectangle-10" fill="none" fill-rule="evenodd" stroke="#808080" stroke-width="3" />
    <path d="M27.2607 0L27.2607 36.3478" id="New-shape-2" fill="none" fill-rule="evenodd" stroke="#808080" stroke-width="3" />
  </g>
</svg>