<?xml version="1.0" encoding="utf-8"?>
<svg width="48px" height="51px" viewBox="0 0 48 51" version="1.1" xmlns:xlink="http://www.w3.org/1999/xlink" xmlns="http://www.w3.org/2000/svg">
  <g id="search-icon">
    <path d="M28.1656 1.15064C18.2894 1.32303 10.3875 9.50572 10.5599 19.3819C10.6348 23.6725 12.2083 27.5799 14.789 30.6225L0.759436 45.1505L3.38017 47.6813L17.4097 33.1533C20.5406 35.6262 24.5005 37.0624 28.7911 36.9876C38.6673 36.8152 46.5692 28.6325 46.3968 18.7563C46.2244 8.88018 38.0417 0.978255 28.1656 1.15064L28.1656 1.15064ZM28.2281 4.73434C36.1655 4.59579 42.6746 10.8816 42.8131 18.8189C42.9517 26.7562 36.6659 33.2653 28.7286 33.4039C20.7913 33.5424 14.2821 27.2566 14.1436 19.3193C14.005 11.382 20.2908 4.87289 28.2281 4.73434L28.2281 4.73434Z" id="Shape" fill="#808080" fill-rule="evenodd" stroke="none" />
  </g>
</svg>