<?xml version="1.0" encoding="utf-8"?>
<svg width="61px" height="61px" viewBox="0 0 61 61" version="1.1" xmlns:xlink="http://www.w3.org/1999/xlink" xmlns="http://www.w3.org/2000/svg">
  <defs>
    <filter id="filter_1">
      <feColorMatrix in="SourceGraphic" type="matrix" values="0 0 0 0 0.5019608 0 0 0 0 0.5019608 0 0 0 0 0.5019608 0 0 0 1 0" />
    </filter>
    <path d="M0 0L60.3286 0L60.3286 60.3286L0 60.3286L0 0Z" id="path_1" />
    <clipPath id="mask_1">
      <use xlink:href="#path_1" />
    </clipPath>
  </defs>
  <g id="setting-icon">
    <g id="Settings-icon" filter="url(#filter_1)">
      <path d="M0 0L60.3286 0L60.3286 60.3286L0 60.3286L0 0Z" id="Background" fill="none" fill-rule="evenodd" stroke="none" />
      <g clip-path="url(#mask_1)">
        <path d="M24.862 5.65581L24.5674 7.18759L23.448 12.7845C21.6511 13.4915 20.031 14.4856 18.5581 15.6713L13.0791 13.786L11.6062 13.3147L10.8403 14.6697L7.06976 21.1504L6.30387 22.5054L7.42324 23.5069L11.6651 27.2186C11.5104 28.1833 11.3116 29.148 11.3116 30.1643C11.3116 31.1806 11.5104 32.1453 11.6651 33.11L7.42324 36.8216L6.30387 37.8232L7.06976 39.1782L10.8403 45.6588L11.6062 47.0139L13.0791 46.5426L18.5581 44.6573C20.031 45.8429 21.6511 46.8371 23.448 47.5441L24.5674 53.141L24.862 54.6728L35.4666 54.6728L35.7612 53.141L36.8806 47.5441C38.6775 46.8371 40.2976 45.8429 41.7705 44.6573L47.2495 46.5426L48.7224 47.0139L49.4883 45.6588L53.2588 39.1782L54.0247 37.8232L52.9053 36.8216L48.6635 33.11C48.8181 32.1453 49.017 31.1806 49.017 30.1643C49.017 29.148 48.8181 28.1833 48.6635 27.2186L52.9053 23.5069L54.0247 22.5054L53.2588 21.1504L49.4883 14.6697L48.7224 13.3147L47.2495 13.786L41.7705 15.6713C40.2976 14.4856 38.6775 13.4915 36.8806 12.7845L35.7612 7.18759L35.4666 5.65581L24.862 5.65581ZM27.9255 9.42634L32.403 9.42634L33.3457 14.3163L33.5813 15.4356L34.6418 15.7891C36.7848 16.4593 38.729 17.5934 40.3565 19.0883L41.1813 19.8542L42.2418 19.5007L47.0139 17.8511L49.2526 21.6806L45.4821 25.0387L44.5984 25.7457L44.893 26.8651C45.136 27.9403 45.2464 29.0376 45.2464 30.1643C45.2464 31.291 45.136 32.3883 44.893 33.4635L44.6573 34.5829L45.4821 35.2899L49.2526 38.648L47.0139 42.4775L42.2418 40.8278L41.1813 40.4744L40.3565 41.2402C38.729 42.7352 36.7848 43.8693 34.6418 44.5395L33.5813 44.893L33.3457 46.0123L32.403 50.9022L27.9255 50.9022L26.9829 46.0123L26.7472 44.893L25.6868 44.5395C23.5438 43.8693 21.5996 42.7352 19.9721 41.2402L19.1473 40.4744L18.0868 40.8278L13.3147 42.4775L11.076 38.648L14.8465 35.2899L15.7302 34.5829L15.4356 33.4635C15.1926 32.3883 15.0821 31.291 15.0821 30.1643C15.0821 29.0376 15.1926 27.9403 15.4356 26.8651L15.7302 25.7457L14.8465 25.0387L11.076 21.6806L13.3147 17.8511L18.0868 19.5007L19.1473 19.8542L19.9721 19.0883C21.5996 17.5934 23.5438 16.4593 25.6868 15.7891L26.7472 15.4356L26.9829 14.3163L27.9255 9.42634ZM30.1643 20.738C24.9798 20.738 20.7379 24.9798 20.7379 30.1643C20.7379 35.3488 24.9798 39.5906 30.1643 39.5906C35.3488 39.5906 39.5906 35.3488 39.5906 30.1643C39.5906 24.9798 35.3488 20.738 30.1643 20.738L30.1643 20.738ZM30.1643 24.5085C33.3089 24.5085 35.8201 27.0197 35.8201 30.1643C35.8201 33.3089 33.3089 35.8201 30.1643 35.8201C27.0197 35.8201 24.5085 33.3089 24.5085 30.1643C24.5085 27.0197 27.0197 24.5085 30.1643 24.5085L30.1643 24.5085Z" id="Shape" fill="#FFFFFF" fill-rule="evenodd" stroke="none" />
      </g>
    </g>
  </g>
</svg>