<?xml version="1.0" encoding="utf-8"?>
<svg width="71px" height="98px" viewBox="0 0 71 98" version="1.1" xmlns:xlink="http://www.w3.org/1999/xlink" xmlns="http://www.w3.org/2000/svg">
  <g id="vcs-icon">
    <g id="Group-3" transform="translate(10 10)">
      <path d="M0 10C0 4.47715 4.47715 0 10 0C15.5228 0 20 4.47715 20 10C20 15.5228 15.5228 20 10 20C4.47715 20 0 15.5228 0 10Z" id="Ellipse" fill="none" fill-rule="evenodd" stroke="#808080" stroke-width="5" />
      <path d="M32.0667 21.9999C32.0667 16.4771 36.5438 11.9999 42.0667 11.9999C47.5895 11.9999 52.0667 16.4771 52.0667 21.9999C52.0667 27.5228 47.5895 31.9999 42.0667 31.9999C36.5438 31.9999 32.0667 27.5228 32.0667 21.9999Z" id="Ellipse-Copy" fill="none" fill-rule="evenodd" stroke="#808080" stroke-width="5" />
      <path d="M0.066658 66C0.066658 60.4772 4.54381 56 10.0667 56C15.5895 56 20.0667 60.4772 20.0667 66C20.0667 71.5229 15.5895 76 10.0667 76C4.54381 76 0.066658 71.5229 0.066658 66Z" id="Ellipse-Copy-2" fill="none" fill-rule="evenodd" stroke="#808080" stroke-width="5" />
      <path d="M10.3333 19.9999L10.3333 57.3332" id="New-shape" fill="none" fill-rule="evenodd" stroke="#808080" stroke-width="5" />
      <path d="M11 56.6666C11 56.6666 7.86431 36.9746 40.6667 31.3333" id="New-shape-2" fill="none" fill-rule="evenodd" stroke="#808080" stroke-width="5" />
    </g>
  </g>
</svg>